<?xml version="1.0" encoding="utf-8"?>
<!-- Generator: Adobe Illustrator 24.3.0, SVG Export Plug-In . SVG Version: 6.00 Build 0)  -->
<svg version="1.1" id="Layer_1" xmlns="http://www.w3.org/2000/svg" xmlns:xlink="http://www.w3.org/1999/xlink" x="0px" y="0px"
	 viewBox="0 0 88.7 14.3" style="enable-background:new 0 0 88.7 14.3;" xml:space="preserve">
<style type="text/css">
	.st0{opacity:0.99;}
	.st1{fill:none;}
	.st2{fill:#00FFEF;}
</style>
<g class="st0">
	<rect x="-0.9" y="1.5" class="st1" width="88.8" height="19"/>
	<path class="st2" d="M0,1.5h2.5l2.8,5.8L8,1.5h2.4v10.8H7.8V7.5l-2.4,5.2H5L2.6,7.4v4.8H0V1.5z M1.9,11.8V5.2h0.3l2.9,6.3l3-6.3
		h0.3v6.6h1.3V2H8.4l-3,6.3H4.9L2,2H0.6v9.8L1.9,11.8L1.9,11.8z M0.9,2.2h1l0,0.1L0.9,2.2L0.9,2.2z M1.1,2.5H2l0,0.1L1.1,2.5
		L1.1,2.5z M1.3,2.9h0.9l0,0.1L1.3,2.9L1.3,2.9z M1.4,3.3h0.9l0,0.1L1.4,3.3L1.4,3.3z M1.6,3.6h0.9l0,0.1L1.6,3.6L1.6,3.6z M1.8,4
		h0.9l0,0.1L1.8,4L1.8,4z M2,4.3h0.9l0,0.1L2,4.3L2,4.3z M2.2,4.7H3l0,0.1L2.2,4.7L2.2,4.7z M2.3,5.1h0.8l0.1,0.1L2.3,5.1L2.3,5.1z
		 M2.5,5.4h0.8l0,0.1L2.5,5.4L2.5,5.4z M2.7,5.8h0.8l0.1,0.1L2.7,5.8L2.7,5.8z M2.9,6.1h0.8l0,0.1L2.9,6.1L2.9,6.1z M3,6.5h0.8
		l0,0.1L3,6.5L3,6.5z M3.2,6.9H4l0,0.1L3.2,6.9L3.2,6.9z M3.4,7.2h0.8l0,0.1L3.4,7.2L3.4,7.2z M3.5,7.6h0.8l0,0.1L3.5,7.6L3.5,7.6z
		 M3.7,7.9h0.8l0,0.1L3.7,7.9L3.7,7.9z M3.9,8.3h0.8l0.1,0.1L3.9,8.3L3.9,8.3z M4,8.7h0.8l0.1,0.1L4,8.7L4,8.7z M4.2,9h0.8l0.1,0.1
		L4.2,9L4.2,9z M5.2,9.4L5.2,9.4L4.4,9.5L4.4,9.4H5.2z M5.4,9.7L5.4,9.7L4.6,9.8l0-0.1H5.4z M5.6,10.1L5.6,10.1l0,0.1H4.8l-0.1-0.1
		H5.6z M5.5,10.5L5.5,10.5l-0.6,0.1l-0.1-0.1H5.5z M5.3,10.8L5.3,10.8l-0.2,0.1L5,10.8H5.3z M5.3,11.1L5.3,11.1H5.1H5.3z M8.6,2.2
		h0.9v0.1L8.6,2.2L8.6,2.2z M8.6,2.5h0.9v0.1L8.6,2.5L8.6,2.5z M8.6,2.9h0.9V3L8.6,2.9L8.6,2.9z M8.6,3.3h0.9v0.1L8.6,3.3L8.6,3.3z
		 M8.6,3.6h0.9v0.1L8.6,3.6L8.6,3.6z M8.6,4h0.9v0.1L8.6,4L8.6,4z M8.6,4.3h0.9v0.1L8.6,4.3L8.6,4.3z M8.6,4.7h0.9v0.1L8.6,4.7
		L8.6,4.7z M8.6,5.1h0.9v0.1L8.6,5.1L8.6,5.1z M8.6,5.4h0.9v0.1L8.6,5.4L8.6,5.4z M8.6,5.8h0.9v0.1L8.6,5.8L8.6,5.8z M8.6,6.1h0.9
		v0.1L8.6,6.1L8.6,6.1z M8.6,6.5h0.9v0.1L8.6,6.5L8.6,6.5z M8.6,6.9h0.9V7L8.6,6.9L8.6,6.9z M8.6,7.2h0.9v0.1L8.6,7.2L8.6,7.2z
		 M8.6,7.6h0.9v0.1L8.6,7.6L8.6,7.6z M8.6,7.9h0.9V8L8.6,7.9L8.6,7.9z M8.6,8.3h0.9v0.1L8.6,8.3L8.6,8.3z M8.6,8.7h0.9v0.1L8.6,8.7
		L8.6,8.7z M8.6,9h0.9v0.1L8.6,9L8.6,9z M8.6,9.4h0.9v0.1L8.6,9.4L8.6,9.4z M8.6,9.7h0.9v0.1L8.6,9.7L8.6,9.7z M8.6,10.1h0.9v0.1
		L8.6,10.1L8.6,10.1z M8.6,10.5h0.9v0.1L8.6,10.5L8.6,10.5z M8.6,10.8h0.9v0.1L8.6,10.8L8.6,10.8z M8.6,11.2h0.9v0.1L8.6,11.2
		L8.6,11.2z M8.6,11.5h0.9v0.1L8.6,11.5L8.6,11.5z"/>
	<path class="st2" d="M18,1.1c3.4,0,5.8,2.5,5.8,5.8s-2.4,5.8-5.8,5.8c-3.4,0-5.8-2.5-5.8-5.8C12.2,3.7,14.6,1.1,18,1.1z M18,12.1
		c3,0,5.1-2.3,5.1-5.2S21,1.6,18,1.6c-3,0-5.1,2.3-5.1,5.3C12.9,9.8,15,12.1,18,12.1z M13.1,6.5h1l0,0.1L13.1,6.5L13.1,6.5z
		 M13.1,6.8h1v0.1L13.1,6.8L13.1,6.8z M13.1,7.2h1l0,0.1L13.1,7.2L13.1,7.2z M13.1,6.1h1l0,0.1L13.1,6.1L13.1,6.1z M13.1,7.6h1
		l0,0.1L13.1,7.6L13.1,7.6z M13.2,5.8h1l0,0.1L13.2,5.8L13.2,5.8z M13.1,7.9h1l0,0.1L13.1,7.9L13.1,7.9z M13.3,5.4h1l0,0.1L13.3,5.4
		L13.3,5.4z M13.4,5h1.1l0,0.1L13.4,5L13.4,5z M13.5,4.7h1.1l-0.1,0.1L13.5,4.7L13.5,4.7z M13.7,4.3h1.2l-0.1,0.1L13.7,4.3L13.7,4.3
		z M13.9,4h1.3l-0.1,0.1L13.9,4L13.9,4z M14.2,3.6h1.5l-0.1,0.1L14.2,3.6L14.2,3.6z M18,3.1c2.3,0,3.8,1.7,3.8,3.8
		c0,2.1-1.5,3.8-3.8,3.8c-2.3,0-3.8-1.7-3.8-3.8C14.2,4.8,15.7,3.1,18,3.1z M14.5,3.2h1.9l-0.2,0.1L14.5,3.2L14.5,3.2z M14.9,2.9
		h6.2L21.2,3h-2.5l-0.7,0l-0.7,0h-2.6L14.9,2.9z M18,10.1c1.9,0,3.1-1.4,3.1-3.3S19.9,3.6,18,3.6c-1.9,0-3.1,1.4-3.1,3.3
		C14.9,8.7,16.1,10.1,18,10.1z M15.5,2.5h5.1l0.1,0.1h-5.4L15.5,2.5z M16.2,2.2h3.7l0.2,0.1H16L16.2,2.2z M18,1.8l1,0.1h-1.8L18,1.8
		z M21.5,3.2L21.5,3.2L21.5,3.2l-1.7,0.1l-0.2-0.1H21.5z M21.9,3.6L21.9,3.6l-1.4,0.1l-0.1-0.1H21.9z M22.1,4L22.1,4l-1.2,0.1
		L20.8,4H22.1z M22.3,4.3L22.3,4.3l-1.1,0.1l-0.1-0.1H22.3z M21.4,4.7h1.1l0,0.1L21.4,4.7L21.4,4.7z M21.6,5h1.1l0,0.1L21.6,5
		L21.6,5z M21.8,5.4h1l0,0.1L21.8,5.4L21.8,5.4z M21.9,5.8h1l0,0.1L21.9,5.8L21.9,5.8z M21.9,7.9h1l0,0.1L21.9,7.9L21.9,7.9z
		 M22,6.1h1l0,0.1L22,6.1L22,6.1z M22,7.6h1l0,0.1L22,7.6L22,7.6z M22,7.2h1v0.1L22,7.2L22,7.2z M22,6.5h1v0.1L22,6.5L22,6.5z
		 M22,6.8h1v0.1L22,6.8L22,6.8z"/>
	<path class="st2" d="M25.7,1.3h2.5l-3.1,4.5h-0.2L25.7,1.3z M27.4,1.7h-1.3l-0.5,2.6L27.4,1.7z M26,3.4h0.1L26,3.6h-0.1L26,3.4z
		 M26.1,3h0.3l-0.1,0.1H26L26.1,3z M26.1,2.7h0.4l-0.1,0.1h-0.4L26.1,2.7z M26.2,2.3h0.6l-0.1,0.1h-0.6L26.2,2.3z M26.3,1.9h0.9
		L27.1,2L26.3,1.9L26.3,1.9z"/>
	<path class="st2" d="M31.2,9.1c0,0.6,0.5,1.1,1.1,1.1c0.7,0,1.1-0.4,1.1-0.9c0-0.8-1.1-1-1.9-1.3c-1.8-0.7-2.8-1.5-2.8-3.3
		c0-1.9,1.6-3.5,3.7-3.5c2.4,0,3.5,1.5,3.7,3.5h-2.5c0-0.6-0.4-1.1-1.1-1.1c-0.6,0-1.1,0.3-1.1,1c0,0.8,1,0.9,1.9,1.2
		C35.1,6.4,36,7.4,36,9.1c0,1.9-1.6,3.5-3.7,3.5c-2.4,0-3.7-1.6-3.7-3.5L31.2,9.1L31.2,9.1z M32.4,12.1c1.7,0,3-1.4,3-3
		c0-1.8-1.1-2.5-2.7-2.9c-1.1-0.3-2-0.6-2-1.6c0-0.9,0.7-1.5,1.7-1.5c1.1,0,1.5,0.7,1.7,1.1h1.3c-0.1-1.1-0.9-2.5-3-2.5
		c-1.7,0-3.1,1.3-3.1,3c0,1.3,0.5,2.2,2.5,2.9c1,0.4,2.3,0.6,2.3,1.8c0,0.9-0.8,1.4-1.7,1.4c-0.9,0-1.5-0.5-1.7-1.1h-1.4
		C29.3,11,30.7,12.1,32.4,12.1z M29.5,4.4h1v0.1L29.5,4.4L29.5,4.4z M29.5,4.8h1l0,0.1L29.5,4.8C29.5,4.9,29.5,4.8,29.5,4.8z
		 M29.5,4h1l0,0.1h-1L29.5,4z M29.5,5.2h1.1l0,0.1L29.5,5.2L29.5,5.2z M29.6,5.5h1.2l0,0l0.1,0.1L29.6,5.5L29.6,5.5z M29.6,3.7h1.1
		l0,0.1L29.6,3.7L29.6,3.7z M29.8,3.3H31l-0.1,0.1h-1.2L29.8,3.3z M29.8,5.9h1.5L31.4,6L29.8,5.9L29.8,5.9z M30,2.9h1.6L31.4,3
		L30,2.9L30,2.9z M30,6.3h2.1l0.3,0.1L30,6.3L30,6.3z M30.4,2.6h2v0.1h-2.1L30.4,2.6z M30.5,6.6h2.8l0.3,0.1h-2.9L30.5,6.6z
		 M30.9,2.2h1.4v0.1h-1.6L30.9,2.2z M34.1,7l0.1,0.1h-2.9L31.2,7H34.1z M32,1.8h0.4v0.1h-0.8L32,1.8z M34.5,7.3l0.1,0.1h-2.5
		l-0.3-0.1H34.5z M32.4,11h2l-0.1,0.1L32.4,11L32.4,11z M32.4,11.4H34l-0.1,0.1L32.4,11.4C32.4,11.5,32.4,11.4,32.4,11.4z
		 M32.4,11.8h0.9l-0.3,0.1L32.4,11.8C32.4,11.9,32.4,11.8,32.4,11.8z M34.9,7.7L34.9,7.7l-1.7,0.1L33,7.7H34.9z M33.5,10.7h1.3
		l0,0.1l0,0h-1.4L33.5,10.7z M35,8.1L35,8.1l-1.3,0.1l-0.1-0.1H35z M33.9,10.3h1.1l0,0.1L33.9,10.3L33.9,10.3z M34,8.5h1.2l0,0.1
		L34,8.5L34,8.5z M34.1,9.9h1l0,0.1h-1L34.1,9.9z M34.1,8.8h1.1v0.1L34.1,8.8L34.1,8.8z M34.2,9.6h1l0,0.1L34.2,9.6L34.2,9.6z
		 M34.2,9.2h1l0,0.1L34.2,9.2L34.2,9.2z"/>
	<path class="st2" d="M48,1.1c2,0,3.5,0.8,4.6,2l-1.8,1.7C50,4.1,49.1,3.6,48,3.6c-1.9,0-3.2,1.4-3.2,3.3s1.2,3.3,3.2,3.3
		c1.1,0,2-0.5,2.8-1.2l1.8,1.7c-1.1,1.1-2.6,2-4.6,2c-3.4,0-5.8-2.5-5.8-5.8C42.1,3.7,44.6,1.1,48,1.1z M48,12.1
		c1.6,0,2.8-0.5,3.8-1.4l-1-1c-0.7,0.6-1.7,1-2.8,1c-2.3,0-3.8-1.7-3.8-3.8c0-2.1,1.5-3.8,3.8-3.8c1,0,2,0.4,2.8,1l1-1
		c-1-1-2.2-1.5-3.8-1.5c-3,0-5.2,2.3-5.2,5.3C42.8,9.8,45,12.1,48,12.1z M43,6.5h1l0,0.1L43,6.5L43,6.5z M43,6.8h1v0.1L43,6.8
		L43,6.8z M43,7.2h1l0,0.1L43,7.2L43,7.2z M43,6.1h1l0,0.1L43,6.1L43,6.1z M43,7.6h1l0,0.1L43,7.6L43,7.6z M43.1,5.8h1l0,0.1
		L43.1,5.8L43.1,5.8z M43.1,7.9h1l0,0.1L43.1,7.9L43.1,7.9z M43.2,5.4h1l0,0.1L43.2,5.4L43.2,5.4z M43.2,8.3h1l0,0.1L43.2,8.3
		L43.2,8.3z M43.3,5h1.1l0,0.1L43.3,5L43.3,5z M43.3,8.6h1l0,0.1L43.3,8.6L43.3,8.6z M43.4,4.7h1.1l-0.1,0.1L43.4,4.7L43.4,4.7z
		 M43.4,9h1.1l0.1,0.1L43.4,9L43.4,9z M43.6,4.3h1.2l-0.1,0.1L43.6,4.3L43.6,4.3z M43.6,9.4h1.2l0.1,0.1L43.6,9.4L43.6,9.4z M43.8,4
		h1.3l-0.1,0.1L43.8,4L43.8,4z M43.8,9.7h1.3l0.1,0.1L43.8,9.7L43.8,9.7z M44.1,3.6h1.5l-0.1,0.1L44.1,3.6L44.1,3.6z M44.1,10.1h1.4
		l0.1,0.1L44.1,10.1L44.1,10.1z M44.4,3.2h1.9l-0.2,0.1L44.4,3.2L44.4,3.2z M46.1,10.4l0.2,0.1h-1.8l-0.1-0.1H46.1z M44.8,2.9H48v0
		l-0.7,0h-2.6L44.8,2.9z M47.4,10.8c0.2,0,0.4,0,0.6,0v0.1h-3.1l-0.1-0.1H47.4z M45.4,2.5H48v0.1h-2.8L45.4,2.5z M48,11.2L48,11.2
		l-2.6,0.1l-0.1-0.1H48z M46.1,2.2H48v0.1h-2.1L46.1,2.2z M48,11.5L48,11.5l-1.8,0.1l-0.2-0.1H48z M48,1.8L48,1.8l-0.9,0.1
		C47.4,1.8,47.5,1.8,48,1.8z M48,11.9L48,11.9L48,11.9h-0.9H48z"/>
	<path class="st2" d="M59.3,1.1c3.4,0,5.8,2.5,5.8,5.8s-2.4,5.8-5.8,5.8c-3.4,0-5.8-2.5-5.8-5.8C53.5,3.7,55.8,1.1,59.3,1.1z
		 M59.3,12.1c3,0,5.1-2.3,5.1-5.2s-2.2-5.3-5.2-5.3c-3,0-5.2,2.3-5.2,5.3C54.1,9.8,56.3,12.1,59.3,12.1z M54.3,6.5h1l0,0.1L54.3,6.5
		L54.3,6.5z M54.3,6.8h1v0.1L54.3,6.8L54.3,6.8z M54.3,7.2h1l0,0.1L54.3,7.2L54.3,7.2z M54.3,6.1h1l0,0.1L54.3,6.1L54.3,6.1z
		 M54.3,7.6h1l0,0.1L54.3,7.6L54.3,7.6z M54.4,5.8h1l0,0.1L54.4,5.8L54.4,5.8z M54.4,7.9h1l0,0.1L54.4,7.9L54.4,7.9z M54.5,5.4h1
		l0,0.1L54.5,5.4L54.5,5.4z M54.6,5h1.1l0,0.1L54.6,5L54.6,5z M54.8,4.7h1.1l-0.1,0.1L54.8,4.7L54.8,4.7z M54.9,4.3h1.2l-0.1,0.1
		L54.9,4.3L54.9,4.3z M55.2,4h1.3l-0.1,0.1L55.2,4L55.2,4z M55.4,3.6h1.5l-0.1,0.1L55.4,3.6L55.4,3.6z M59.3,3.1
		c2.3,0,3.8,1.7,3.8,3.8c0,2.1-1.5,3.8-3.8,3.8c-2.3,0-3.8-1.7-3.8-3.8C55.5,4.8,57,3.1,59.3,3.1z M55.8,3.2h1.9l-0.2,0.1L55.8,3.2
		L55.8,3.2z M56.2,2.9h6.2L62.5,3H60l-0.7,0l-0.7,0H56L56.2,2.9z M59.3,10.1c1.9,0,3.1-1.4,3.1-3.3s-1.2-3.3-3.1-3.3
		c-1.9,0-3.1,1.4-3.1,3.3C56.1,8.7,57.3,10.1,59.3,10.1z M56.7,2.5h5.2L62,2.6h-5.4L56.7,2.5z M57.4,2.2h3.7l0.2,0.1h-4.1L57.4,2.2z
		 M59.3,1.8l1,0.1h-1.8L59.3,1.8z M62.8,3.2L62.8,3.2L62.8,3.2l-1.7,0.1l-0.2-0.1H62.8z M63.1,3.6L63.1,3.6l-1.4,0.1l-0.1-0.1H63.1z
		 M63.3,4L63.3,4l-1.2,0.1L62,4C62,4,63.3,4,63.3,4z M63.6,4.3L63.6,4.3l-1.1,0.1l-0.1-0.1H63.6z M62.6,4.7h1.1l0,0.1L62.6,4.7
		L62.6,4.7z M62.8,5h1.1l0,0.1L62.8,5L62.8,5z M63,5.4h1l0,0.1L63,5.4L63,5.4z M63.1,5.8h1l0,0.1L63.1,5.8L63.1,5.8z M63.1,7.9h1
		l0,0.1L63.1,7.9L63.1,7.9z M63.2,6.1h1l0,0.1L63.2,6.1L63.2,6.1z M63.2,7.6h1l0,0.1L63.2,7.6L63.2,7.6z M63.3,7.2h1v0.1L63.3,7.2
		L63.3,7.2z M63.3,6.5h1v0.1L63.3,6.5L63.3,6.5z M63.3,6.8h1v0.1L63.3,6.8L63.3,6.8z"/>
	<path class="st2" d="M66.9,1.5h3.8c3.2,0,5.7,2.3,5.7,5.4c0,2.9-2.2,5.4-5.7,5.4h-3.8V1.5z M70.7,11.8c3,0,5-2.3,5-4.9
		c0-2.8-2.2-4.9-5-4.9h-3.1v9.8L70.7,11.8L70.7,11.8z M68.9,2.2h2.5l0.5,0.1L68.9,2.2L68.9,2.2z M68.9,2.6h3.8l0.2,0.1L68.9,2.6
		L68.9,2.6z M68.9,3h4.4L73.5,3L68.9,3L68.9,3z M68.9,3.4h1.7c2.3,0,3.7,1.5,3.7,3.5c0,2.1-1.6,3.5-3.7,3.5h-1.7V3.4z M68.9,10.7
		h4.6l-0.1,0.1L68.9,10.7L68.9,10.7z M68.9,11.1h4l-0.2,0.1L68.9,11.1L68.9,11.1z M68.9,11.4h3l-0.4,0.1L68.9,11.4L68.9,11.4z
		 M70.6,9.9c1.7,0,3-1.2,3-3c0-1.7-1.1-3-3-3h-1.1v6H70.6z M71.9,10.4h2l-0.1,0.1h-2.2L71.9,10.4z M73.8,3.3L73.8,3.3L74,3.4H72
		l-0.3-0.1H73.8z M72.8,10h1.6l-0.1,0.1h-1.7L72.8,10z M74.2,3.7L74.2,3.7l-1.4,0.1l-0.1-0.1H74.2z M73.3,9.6h1.3l-0.1,0.1h-1.4
		L73.3,9.6z M74.5,4L74.5,4l-1.3,0.1L73.2,4H74.5z M73.6,9.3h1.2l-0.1,0.1L73.6,9.3L73.6,9.3z M73.5,4.4h1.2l0.1,0.1L73.5,4.4
		L73.5,4.4z M73.8,8.9H75L75,9L73.8,8.9L73.8,8.9z M73.8,4.7H75l0,0.1L73.8,4.7L73.8,4.7z M74.1,8.6h1.1l0,0.1L74.1,8.6L74.1,8.6z
		 M74,5.1h1.1l0,0.1L74,5.1L74,5.1z M74.2,5.4h1.1l0,0.1L74.2,5.4L74.2,5.4z M74.2,8.3h1.1l0,0.1L74.2,8.3L74.2,8.3z M74.3,7.9h1
		l0,0.1L74.3,7.9L74.3,7.9z M74.3,5.8h1l0,0.1L74.3,5.8L74.3,5.8z M74.4,6.1h1l0,0.1L74.4,6.1L74.4,6.1z M74.4,7.6h1l0,0.1L74.4,7.6
		L74.4,7.6z M74.4,7.2h1v0.1L74.4,7.2L74.4,7.2z M74.4,6.5h1v0.1L74.4,6.5L74.4,6.5z M74.5,6.8h1v0.1L74.5,6.8L74.5,6.8z"/>
	<path class="st2" d="M78.1,1.5h7.2v2.3h-4.5v1.9h4.2v2.3h-4.2V10h4.7v2.3h-7.3V1.5z M84.8,11.8v-1.3h-4.7V7.6h4.2V6.3h-4.2v-3h4.5
		V2h-5.8v9.8L84.8,11.8L84.8,11.8z M79.1,11.5h5.5v0.1L79.1,11.5L79.1,11.5z M79.1,2.2h5.4v0.1L79.1,2.2L79.1,2.2z M79.4,2.6h5v0.1
		L79.4,2.6L79.4,2.6z M79.5,11.1h5.1v0.1L79.5,11.1L79.5,11.1z M79.8,3h4.7V3L79.8,3L79.8,3z M79.9,10.8h4.8v0.1h-4.9L79.9,10.8z
		 M80.1,6.5h4v0.1L80.1,6.5L80.1,6.5z M80.1,6.9h4V7L80.1,6.9L80.1,6.9z M80.1,7.2h4v0.1L80.1,7.2L80.1,7.2z"/>
</g>
<g>
</g>
<g>
</g>
</svg>
