<?xml version="1.0" encoding="UTF-8"?>
<svg xmlns="http://www.w3.org/2000/svg" xmlns:xlink="http://www.w3.org/1999/xlink" width="500pt" height="540pt" viewBox="0 0 500 540" version="1.1">
<g id="surface1">
<path style="fill-rule:nonzero;fill:rgb(17.647059%,12.156863%,12.156863%);fill-opacity:1;stroke-width:1;stroke-linecap:butt;stroke-linejoin:miter;stroke:rgb(17.647059%,12.156863%,12.156863%);stroke-opacity:1;stroke-miterlimit:4;" d="M 512.137852 104.051273 C 582.08622 60.717436 662.689611 33.746417 745.118892 30.226369 C 815.343545 27.559302 886.733405 36.629733 952.381323 62.375343 C 1001.968626 82.150085 1048.036287 113.277885 1080.217581 156.371446 C 1108.903259 193.974692 1124.867776 239.615182 1133.636848 285.676156 C 1143.138679 336.362449 1151.847689 387.589364 1151.247068 439.332873 C 1151.559391 463.93717 1150.105887 488.517439 1148.099811 513.025625 C 1145.793425 538.530958 1144.904506 564.40872 1138.153521 589.253293 C 1124.14703 657.900242 1097.983962 723.195336 1078.77609 790.436669 C 1077.995282 792.418949 1077.130387 794.377201 1076.193418 796.287398 C 1071.941018 756.401526 1077.947232 716.40753 1081.106501 676.65381 C 1084.373881 649.034045 1087.629249 621.378239 1090.332046 593.674377 C 1092.866668 565.081493 1096.350272 536.356457 1093.959799 507.643435 C 1083.653136 458.158524 1067.376296 410.01916 1046.931143 363.81402 C 1044.012123 357.026214 1040.684681 349.80591 1033.765522 346.261834 C 989.187402 318.48589 936.885291 306.868529 885.592224 298.819271 C 833.109926 290.842097 779.882858 288.559472 726.872014 290.397586 C 670.689888 293.533192 614.063303 299.924543 560.427812 317.765061 C 540.018697 324.949323 519.789769 333.551216 502.263636 346.418014 C 495.849 350.803057 493.518589 358.575996 490.40737 365.29172 C 470.899187 409.466524 455.319068 455.455415 445.048442 502.657701 C 443.138466 511.139456 442.489795 519.813432 442.633944 528.499421 C 442.718031 603.501679 451.234843 678.155537 454.778509 753.025643 C 455.47523 778.687156 457.889728 804.504848 454.718447 830.106292 C 454.406124 832.004475 453.649341 833.722451 452.424073 835.260219 C 430.825728 755.476462 415.041397 674.275074 399.509328 593.157783 C 397.166904 578.957452 394.812469 564.75712 393.010604 550.49672 C 388.83028 505.480948 391.761312 460.188859 396.073774 415.317253 C 399.881713 371.947374 399.377191 328.289164 403.305255 284.967341 C 413.732043 222.411397 449.060593 166.655273 492.413446 121.495335 C 498.479722 115.15204 504.353799 108.364234 512.137852 104.051273 Z M 512.137852 104.051273 " transform="matrix(0.325184,0,0,0.325146,0,0.0704406)"/>
<path style="fill-rule:nonzero;fill:rgb(64.705882%,40%,22.745098%);fill-opacity:1;stroke-width:1;stroke-linecap:butt;stroke-linejoin:miter;stroke:rgb(64.705882%,40%,22.745098%);stroke-opacity:1;stroke-miterlimit:4;" d="M 726.872014 290.4096 C 779.882858 288.559472 833.109926 290.842097 885.592224 298.819271 C 936.885291 306.868529 989.187402 318.48589 1033.777535 346.261834 C 1040.684681 349.80591 1044.012123 357.026214 1046.931143 363.81402 C 1067.376296 410.01916 1083.653136 458.158524 1093.959799 507.643435 C 1096.350272 536.356457 1092.866668 565.081493 1090.332046 593.674377 C 1087.629249 621.378239 1084.373881 649.034045 1081.106501 676.65381 C 1077.947232 716.419544 1071.941018 756.401526 1076.193418 796.287398 C 1077.130387 794.377201 1077.995282 792.418949 1078.77609 790.436669 C 1097.983962 723.195336 1124.14703 657.900242 1138.153521 589.253293 C 1138.573956 590.082246 1139.354764 591.752167 1139.763186 592.58112 C 1152.568435 592.388899 1165.553869 596.497624 1174.851488 605.507987 C 1193.602888 622.843924 1200.305823 649.478556 1200.365885 674.239033 C 1201.194743 715.602604 1184.028983 754.851744 1162.082278 789.043066 C 1150.298086 806.403031 1136.651968 823.486679 1118.152829 834.046824 C 1111.365807 838.119508 1103.485654 839.465055 1095.737638 840.161857 C 1090.548269 860.453193 1085.995559 881.24911 1078.055344 900.591355 C 1079.160488 893.190844 1080.794178 885.886443 1081.935358 878.50996 C 1075.340535 885.141587 1070.667701 893.298968 1065.06991 900.747535 C 1020.335628 959.975652 962.615912 1010.313544 895.274241 1042.102103 C 876.414729 1050.631913 855.609204 1057.203471 834.671542 1054.163975 C 822.44289 1052.373917 810.178201 1050.523789 798.249861 1047.376169 C 787.570812 1044.42077 778.35728 1036.383527 766.813337 1036.828038 C 754.716822 1036.347485 745.911712 1046.15076 734.704117 1048.961993 C 719.652545 1053.070718 703.904252 1054.872791 688.336145 1054.596473 C 656.479186 1052.049544 626.26793 1039.975658 598.086774 1025.559078 C 541.808549 995.668701 492.173197 953.380066 453.120794 903.090229 C 446.874331 882.234243 440.159384 861.510409 435.414475 840.23394 C 409.948128 833.470161 392.109672 812.361885 377.598659 791.638051 C 355.892202 758.576027 338.690405 720.87667 337.597274 680.750521 C 336.900554 656.794971 341.453264 631.301652 356.769109 612.163641 C 366.835524 599.501078 383.064314 590.803075 399.509328 593.169797 C 415.041397 674.287088 430.825728 755.476462 452.424073 835.272233 C 453.649341 833.722451 454.406124 832.004475 454.706434 830.118306 C 457.889728 804.516862 455.47523 778.687156 454.778509 753.025643 C 451.234843 678.155537 442.718031 603.501679 442.633944 528.511435 C 442.489795 519.825445 443.138466 511.15147 445.048442 502.657701 C 455.319068 455.455415 470.899187 409.478538 490.40737 365.29172 C 493.518589 358.575996 495.836987 350.815071 502.263636 346.418014 C 519.789769 333.56323 540.018697 324.949323 560.427812 317.777074 C 614.063303 299.924543 670.689888 293.545206 726.872014 290.4096 Z M 726.872014 290.4096 " transform="matrix(0.325184,0,0,0.325146,0,0.0704406)"/>
<path style="fill-rule:nonzero;fill:rgb(17.647059%,12.156863%,12.156863%);fill-opacity:1;stroke-width:1;stroke-linecap:butt;stroke-linejoin:miter;stroke:rgb(17.647059%,12.156863%,12.156863%);stroke-opacity:1;stroke-miterlimit:4;" d="M 1065.06991 900.735521 C 1070.667701 893.298968 1075.340535 885.141587 1081.935358 878.50996 C 1080.794178 885.886443 1079.160488 893.190844 1078.055344 900.591355 C 1073.058174 922.840944 1064.985823 944.333662 1055.351855 964.973399 C 1048.817095 978.224639 1041.777812 991.379769 1031.987683 1002.564632 C 1002.773458 1039.278856 966.6641 1069.974158 927.419498 1095.503519 C 891.226053 1117.608942 851.488941 1135.509529 809.025008 1140.639429 C 778.729665 1145.168638 747.749614 1144.291629 717.634457 1138.945481 C 678.329793 1132.914545 642.869105 1113.187857 610.327438 1091.262642 C 577.617597 1067.259036 544.415246 1043.387582 516.438301 1013.76151 C 481.962633 978.344778 453.913614 935.611631 440.723968 887.640461 C 445.276678 892.445987 448.760282 898.128523 453.120794 903.090229 C 492.173197 953.380066 541.808549 995.668701 598.086774 1025.547064 C 626.26793 1039.975658 656.491199 1052.03753 688.336145 1054.584459 C 703.904252 1054.872791 719.652545 1053.070718 734.704117 1048.961993 C 745.911712 1046.15076 754.716822 1036.335471 766.813337 1036.816024 C 778.35728 1036.383527 787.570812 1044.408756 798.249861 1047.376169 C 810.178201 1050.523789 822.454903 1052.373917 834.671542 1054.151962 C 855.609204 1057.203471 876.414729 1050.631913 895.274241 1042.102103 C 962.615912 1010.313544 1020.335628 959.975652 1065.06991 900.735521 Z M 1065.06991 900.735521 " transform="matrix(0.325184,0,0,0.325146,0,0.0704406)"/>
<path style="fill-rule:nonzero;fill:rgb(55.686275%,36.078431%,22.745098%);fill-opacity:1;stroke-width:1;stroke-linecap:butt;stroke-linejoin:miter;stroke:rgb(55.686275%,36.078431%,22.745098%);stroke-opacity:1;stroke-miterlimit:4;" d="M 610.327438 1091.274656 C 642.869105 1113.187857 678.329793 1132.914545 717.634457 1138.945481 C 747.749614 1144.303643 778.729665 1145.168638 809.037021 1140.639429 C 851.488941 1135.509529 891.226053 1117.608942 927.419498 1095.515533 C 929.521673 1111.578006 928.536654 1127.916797 929.749909 1144.07538 C 921.941831 1151.872348 911.887429 1156.701902 902.373586 1161.999995 C 868.846899 1177.930316 833.866709 1191.409819 797.264841 1198.221653 C 781.492524 1201.309204 765.287758 1200.360112 749.323242 1200.13185 C 726.980126 1198.161584 705.165557 1192.394952 683.927584 1185.342841 C 663.974941 1177.834206 643.517776 1170.770081 625.571209 1159.020569 C 619.793231 1155.308299 614.219465 1151.259643 608.321363 1147.739595 C 607.780803 1138.921453 608.321363 1130.091298 608.921984 1121.309198 C 609.702792 1111.301688 608.681735 1101.210082 610.327438 1091.274656 Z M 610.327438 1091.274656 " transform="matrix(0.325184,0,0,0.325146,0,0.0704406)"/>
<path style="fill-rule:nonzero;fill:rgb(64.705882%,40%,22.745098%);fill-opacity:1;stroke-width:1;stroke-linecap:butt;stroke-linejoin:miter;stroke:rgb(64.705882%,40%,22.745098%);stroke-opacity:1;stroke-miterlimit:4;" d="M 902.373586 1161.999995 C 911.887429 1156.701902 921.941831 1151.872348 929.749909 1144.07538 C 930.170344 1160.63042 932.488743 1177.053308 935.059402 1193.404112 C 937.846285 1212.554136 949.161993 1231.656105 967.733206 1239.020575 C 982.616604 1244.378737 997.788301 1248.835863 1012.827861 1253.773542 C 1009.344256 1263.264457 1003.902627 1271.830308 999.145705 1280.708519 C 979.721609 1316.317472 958.375525 1350.881223 934.843178 1383.919219 C 910.75826 1417.245547 884.727329 1449.622783 853.254768 1476.317484 C 831.74051 1494.53043 806.826734 1510.448738 778.537466 1514.845795 C 761.28762 1517.428765 745.515302 1507.745629 731.3046 1499.287902 C 698.630796 1477.602963 670.834037 1449.538687 644.490783 1420.741568 C 606.459436 1378.344808 571.887669 1332.800429 541.724462 1284.468844 C 535.87441 1274.413279 529.1955 1264.718129 525.123287 1253.773542 C 539.58625 1248.968015 554.205375 1244.619013 568.632301 1239.633279 C 585.617874 1233.590329 597.510177 1217.623967 601.450254 1200.420181 C 605.017945 1183.036188 606.495474 1165.35185 608.321363 1147.727581 C 614.219465 1151.247629 619.781219 1155.296285 625.571209 1159.020569 C 643.517776 1170.770081 663.962929 1177.834206 683.927584 1185.342841 C 705.165557 1192.394952 726.980126 1198.14957 749.323242 1200.13185 C 765.287758 1200.360112 781.492524 1201.309204 797.264841 1198.221653 C 833.866709 1191.409819 868.846899 1177.930316 902.373586 1161.999995 Z M 902.373586 1161.999995 " transform="matrix(0.325184,0,0,0.325146,0,0.0704406)"/>
<path style="fill-rule:nonzero;fill:rgb(60%,80%,20%);fill-opacity:1;stroke-width:1;stroke-linecap:butt;stroke-linejoin:miter;stroke:rgb(60%,80%,20%);stroke-opacity:1;stroke-miterlimit:4;" d="M 274.471966 1334.950902 C 358.066452 1308.051966 441.420689 1280.336091 525.123287 1253.773542 C 529.1955 1264.718129 535.87441 1274.413279 541.724462 1284.468844 C 571.899681 1332.800429 606.459436 1378.344808 644.490783 1420.741568 C 670.834037 1449.538687 698.642808 1477.602963 731.3046 1499.287902 C 745.515302 1507.745629 761.28762 1517.428765 778.537466 1514.845795 C 806.826734 1510.448738 831.74051 1494.53043 853.254768 1476.317484 C 884.727329 1449.622783 910.770273 1417.245547 934.843178 1383.919219 C 958.375525 1350.881223 979.721609 1316.317472 999.145705 1280.708519 C 1003.902627 1271.830308 1009.344256 1263.264457 1012.827861 1253.773542 C 1091.088828 1278.522004 1168.989424 1304.519904 1247.154292 1329.628781 C 1265.785568 1336.608809 1285.509974 1339.864553 1304.309424 1346.279931 C 1375.410985 1368.433409 1437.551275 1419.083661 1471.66657 1485.544096 C 1495.258978 1529.586748 1505.649729 1579.311936 1510.382625 1628.700737 C 1502.598572 1630.154408 1494.658357 1629.733925 1486.802229 1629.697883 C 1003.169868 1629.673856 519.561533 1629.709897 35.917159 1629.673856 C 33.142289 1629.433579 30.37943 1629.12122 27.616572 1628.71275 C 32.121232 1586.472171 40.169559 1544.051383 57.635629 1505.090575 C 86.309295 1438.546044 140.977854 1383.222418 208.115314 1355.458487 C 229.449386 1346.279931 252.0808 1340.825658 274.471966 1334.950902 Z M 274.471966 1334.950902 " transform="matrix(0.325184,0,0,0.325146,0,0.0704406)"/>
</g>
</svg>
