<?xml version="1.0" standalone="no"?>
<!DOCTYPE svg PUBLIC "-//W3C//DTD SVG 20010904//EN"
 "http://www.w3.org/TR/2001/REC-SVG-20010904/DTD/svg10.dtd">
<svg version="1.0" xmlns="http://www.w3.org/2000/svg"
 width="1110.000000pt" height="1280.000000pt" viewBox="0 0 1110.000000 1280.000000"
 preserveAspectRatio="xMidYMid meet">
<metadata>
Created by potrace 1.15, written by Peter Selinger 2001-2017
</metadata>
<g transform="translate(0.000000,1280.000000) scale(0.100000,-0.100000)"
fill="#000000" stroke="none">
<path d="M5404 12393 c-54 -98 -279 -511 -501 -918 -221 -407 -408 -744 -416
-749 -10 -7 -169 43 -523 162 -280 95 -512 172 -516 172 -4 0 -5 -39 -1 -87 4
-49 6 -118 4 -156 -3 -111 35 -358 124 -797 46 -228 133 -658 194 -955 135
-666 163 -830 165 -962 1 -118 -6 -134 -54 -116 l-30 11 21 -31 21 -32 -26 30
c-15 17 -149 185 -298 375 -595 754 -681 861 -690 852 -5 -5 -113 -157 -242
-338 l-233 -329 -54 3 c-45 2 -301 29 -1437 154 -56 6 -105 8 -108 5 -4 -3 -1
-45 6 -94 9 -64 10 -88 1 -91 -32 -11 -2 -247 120 -971 52 -308 91 -570 92
-615 l2 -79 -285 -154 c-157 -85 -298 -161 -314 -169 l-28 -16 42 -43 c33 -33
38 -44 26 -48 -27 -11 -20 -77 14 -129 54 -82 271 -297 695 -692 231 -214 449
-418 485 -451 36 -34 169 -158 295 -275 127 -117 262 -243 300 -279 39 -36
190 -177 335 -313 323 -301 370 -354 370 -423 0 -15 4 -24 10 -20 6 4 4 -11
-5 -32 -8 -21 -64 -163 -125 -316 -60 -153 -110 -280 -110 -283 0 -3 9 -3 19
1 16 5 18 2 14 -15 -8 -30 15 -76 44 -89 45 -21 104 -23 276 -12 182 12 220
17 1097 146 647 95 774 107 830 78 58 -30 72 -90 71 -303 0 -96 -2 -224 -6
-285 -3 -60 -7 -157 -10 -215 -3 -58 -7 -159 -10 -225 -3 -66 -15 -322 -25
-570 -11 -247 -25 -565 -31 -705 -12 -279 -7 -451 15 -504 29 -70 72 -83 321
-97 237 -14 488 -1 538 29 70 40 92 109 107 331 4 71 6 201 4 288 -24 816 -42
1940 -34 2022 11 105 31 154 73 185 26 19 42 21 165 20 126 -1 198 -12 887
-127 960 -161 1052 -171 1110 -117 30 28 43 79 24 91 -11 7 -10 9 4 9 22 0 22
3 -8 91 -14 41 -24 82 -21 91 2 9 -14 79 -35 154 -46 163 -69 269 -69 321 0
58 41 133 116 213 58 61 719 676 1414 1314 157 145 378 348 505 465 329 303
455 451 455 536 0 27 -6 50 -16 59 -14 15 -13 19 16 46 18 17 30 34 26 38 -4
4 -143 95 -308 202 l-302 195 -4 59 c-5 75 5 162 80 696 59 420 61 443 62 653
1 156 -2 220 -11 225 -8 5 -9 29 -2 91 5 46 7 86 5 88 -2 3 -53 0 -113 -6 -59
-6 -387 -38 -728 -71 -341 -33 -646 -62 -677 -65 l-56 -6 -223 331 c-122 182
-225 327 -229 323 -4 -4 -126 -154 -271 -333 -490 -606 -690 -850 -696 -850
-3 0 0 7 7 15 10 12 9 15 -8 15 -12 0 -24 11 -32 31 -27 64 14 304 200 1174
162 760 182 853 215 1020 51 255 72 543 44 619 -9 24 -8 50 4 111 8 44 13 82
11 84 -2 3 -97 -21 -212 -53 -711 -197 -896 -246 -903 -239 -4 5 -143 269
-309 588 -290 557 -630 1207 -636 1213 -1 2 -46 -77 -100 -175z"/>
</g>
</svg>
